<?xml version="1.0" encoding="utf-8"?>
<!-- Generator: Adobe Illustrator 21.0.2, SVG Export Plug-In . SVG Version: 6.00 Build 0)  -->
<svg version="1.1" xmlns="http://www.w3.org/2000/svg" xmlns:xlink="http://www.w3.org/1999/xlink" x="0px" y="0px"
	 viewBox="0 0 20 20" style="enable-background:new 0 0 20 20;" xml:space="preserve">
<style type="text/css">
	.st0{fill:none;}
</style>
<g id="серый">
	<rect class="st0" width="20" height="20"/>
</g>
<g id="Layer_9">
	<path d="M16.9,10.7H9V4.5C9,3.6,8.3,3,7.5,3S6,3.6,6,4.5v6.3H2.9v4.2H0.2v1.2h2.8V20h14v-3.9h2.6v-1.2h-2.6V10.7z M15.7,14.9h-4.3
		v1.2h4.3v2.7H4.1v-2.7h4.4l2.1-2.1l-0.9-0.8l-1.7,1.8H4.1v-3h11.5V14.9z M12.4,0.3h-1.2c0,4.6,3.8,8.4,8.4,8.4V7.5
		C15.6,7.5,12.4,4.3,12.4,0.3z M14.7,0.3h-1.2c0,3.4,2.7,6.1,6.1,6.1V5.2C16.9,5.2,14.7,3,14.7,0.3z"/>
</g>
</svg>
