<?xml version="1.0" encoding="utf-8"?>
<!-- Generator: Adobe Illustrator 21.0.2, SVG Export Plug-In . SVG Version: 6.00 Build 0)  -->
<svg version="1.1" xmlns="http://www.w3.org/2000/svg" xmlns:xlink="http://www.w3.org/1999/xlink" x="0px" y="0px"
	 viewBox="0 0 20 20" style="enable-background:new 0 0 20 20;" xml:space="preserve">
<style type="text/css">
	.st0{fill:none;}
</style>
<g id="серый">
	<rect class="st0" width="20" height="20"/>
</g>
<g id="Layer_9">
	<path d="M16.912,8.176c-0.074,0-0.154-0.006-0.242-0.02c-0.088-0.013-0.179-0.033-0.272-0.061
		c-0.093-0.027-0.186-0.062-0.278-0.104C16.028,7.95,15.943,7.9,15.866,7.841l-0.369,0.544c0.088,0.081,0.188,0.149,0.3,0.206
		c0.112,0.057,0.229,0.104,0.352,0.141c0.123,0.037,0.248,0.063,0.374,0.08s0.249,0.025,0.366,0.025
		c0.161,0,0.317-0.018,0.467-0.052c0.15-0.035,0.284-0.09,0.402-0.165c0.117-0.075,0.211-0.17,0.283-0.284
		c0.071-0.113,0.107-0.249,0.107-0.407c0-0.172-0.042-0.313-0.126-0.424c-0.084-0.11-0.189-0.201-0.313-0.272
		c-0.125-0.072-0.26-0.127-0.407-0.168c-0.146-0.04-0.282-0.077-0.407-0.11c-0.125-0.033-0.229-0.068-0.313-0.104
		c-0.084-0.037-0.126-0.084-0.126-0.143s0.029-0.106,0.088-0.143s0.16-0.055,0.302-0.055c0.154,0,0.314,0.02,0.481,0.058
		c0.167,0.038,0.314,0.092,0.443,0.162l0.308-0.55c-0.044-0.044-0.106-0.086-0.187-0.126c-0.081-0.04-0.173-0.075-0.278-0.104
		s-0.219-0.053-0.344-0.071c-0.125-0.019-0.253-0.028-0.385-0.028c-0.194,0-0.37,0.021-0.528,0.063s-0.293,0.102-0.407,0.179
		c-0.114,0.077-0.201,0.17-0.261,0.281c-0.061,0.11-0.091,0.233-0.091,0.368c0,0.165,0.042,0.301,0.126,0.407
		s0.189,0.192,0.313,0.259c0.125,0.066,0.261,0.118,0.41,0.157c0.148,0.039,0.285,0.074,0.41,0.107
		c0.125,0.033,0.229,0.07,0.313,0.11c0.084,0.04,0.126,0.093,0.126,0.159c0,0.084-0.031,0.145-0.093,0.182
		C17.141,8.158,17.043,8.176,16.912,8.176z M11.003,8.781h0.825v-2.86h-0.825V8.781z M11.762,4.816
		c-0.077-0.081-0.192-0.122-0.346-0.122c-0.154,0-0.27,0.041-0.347,0.122c-0.077,0.082-0.116,0.175-0.116,0.282
		c0,0.118,0.037,0.218,0.11,0.299c0.073,0.081,0.19,0.122,0.352,0.122c0.15,0,0.265-0.041,0.344-0.122
		c0.079-0.081,0.118-0.181,0.118-0.299C11.878,4.991,11.839,4.898,11.762,4.816z M16.334,10.363l-0.849,0.849
		c2.162,2.162,2.162,5.68,0,7.842l0.849,0.849c1.275-1.275,1.978-2.969,1.978-4.77S17.61,11.638,16.334,10.363z M10.445,3.625
		c0.145,0.128,0.317,0.228,0.517,0.297c0.2,0.069,0.416,0.104,0.646,0.104c0.238,0,0.458-0.035,0.657-0.104
		c0.2-0.07,0.374-0.169,0.52-0.297s0.26-0.285,0.341-0.47c0.081-0.185,0.121-0.392,0.121-0.619c0-0.231-0.04-0.438-0.121-0.622
		c-0.081-0.184-0.193-0.34-0.338-0.471c-0.145-0.13-0.318-0.23-0.52-0.3c-0.202-0.069-0.422-0.104-0.66-0.104
		c-0.231,0-0.446,0.035-0.646,0.104c-0.2,0.07-0.372,0.17-0.517,0.3c-0.145,0.13-0.258,0.287-0.341,0.471
		C10.021,2.098,9.98,2.305,9.98,2.536c0,0.227,0.041,0.434,0.124,0.619S10.3,3.497,10.445,3.625z M10.921,2.181
		c0.04-0.101,0.094-0.185,0.162-0.253s0.148-0.118,0.239-0.151c0.092-0.033,0.187-0.049,0.286-0.049
		c0.224,0,0.406,0.066,0.547,0.198c0.141,0.132,0.212,0.335,0.212,0.611c0,0.268-0.068,0.468-0.204,0.602s-0.321,0.201-0.556,0.201
		c-0.22,0-0.4-0.072-0.539-0.217c-0.139-0.145-0.209-0.34-0.209-0.585C10.86,2.401,10.88,2.282,10.921,2.181z M14.69,11.657
		l-0.849,0.849c1.448,1.448,1.448,3.805,0,5.253l0.849,0.849C16.606,16.692,16.606,13.573,14.69,11.657z M3.572,8.347L3.181,7.835
		C3.079,7.931,2.963,8.002,2.835,8.05C2.706,8.097,2.567,8.121,2.416,8.121c-0.117,0-0.226-0.018-0.324-0.055
		C1.993,8.029,1.907,7.977,1.833,7.909C1.76,7.842,1.703,7.76,1.663,7.665C1.622,7.57,1.602,7.463,1.602,7.346
		c0-0.261,0.073-0.456,0.22-0.586c0.146-0.13,0.333-0.195,0.561-0.195c0.128,0,0.258,0.019,0.391,0.058
		c0.132,0.039,0.256,0.102,0.374,0.19l0.379-0.539C3.476,6.222,3.415,6.171,3.344,6.122C3.272,6.072,3.186,6.028,3.085,5.987
		S2.869,5.914,2.738,5.888C2.608,5.863,2.459,5.849,2.29,5.849c-0.224,0-0.431,0.036-0.622,0.107
		c-0.19,0.072-0.356,0.172-0.498,0.303c-0.142,0.13-0.251,0.288-0.33,0.473c-0.079,0.185-0.118,0.39-0.118,0.613
		c0,0.234,0.042,0.444,0.126,0.63c0.084,0.185,0.2,0.341,0.346,0.467C1.342,8.57,1.513,8.667,1.707,8.735s0.401,0.102,0.622,0.102
		C2.853,8.837,3.268,8.674,3.572,8.347z M14.32,8.795c0.113-0.02,0.226-0.051,0.338-0.093c0.112-0.042,0.219-0.097,0.322-0.165
		c0.103-0.068,0.196-0.151,0.28-0.25l-0.396-0.44c-0.11,0.112-0.24,0.193-0.391,0.244c-0.15,0.05-0.308,0.075-0.473,0.075
		c-0.216,0-0.397-0.049-0.542-0.147c-0.145-0.098-0.238-0.238-0.278-0.419h2.123c0.019-0.106,0.03-0.192,0.036-0.259
		c0.005-0.066,0.008-0.121,0.008-0.165c0-0.198-0.038-0.378-0.112-0.542c-0.076-0.163-0.177-0.302-0.306-0.416
		s-0.279-0.202-0.451-0.264c-0.172-0.062-0.355-0.093-0.55-0.093c-0.242,0-0.458,0.039-0.649,0.115
		c-0.191,0.077-0.352,0.182-0.484,0.314c-0.132,0.132-0.233,0.289-0.302,0.47c-0.07,0.182-0.104,0.377-0.104,0.586
		c0,0.227,0.04,0.432,0.121,0.613s0.192,0.336,0.333,0.465s0.31,0.227,0.506,0.297s0.41,0.104,0.641,0.104
		C14.097,8.825,14.206,8.815,14.32,8.795z M13.44,6.662c0.125-0.094,0.279-0.142,0.462-0.142c0.202,0,0.354,0.054,0.457,0.161
		c0.103,0.107,0.154,0.239,0.154,0.395h-1.32C13.233,6.895,13.315,6.757,13.44,6.662z M4.124,8.435
		c0.145,0.128,0.317,0.228,0.517,0.297c0.2,0.069,0.416,0.104,0.646,0.104c0.238,0,0.458-0.035,0.657-0.104
		c0.2-0.07,0.374-0.169,0.52-0.297s0.26-0.285,0.341-0.47c0.081-0.185,0.121-0.392,0.121-0.619c0-0.231-0.04-0.438-0.121-0.622
		c-0.081-0.184-0.193-0.34-0.338-0.471c-0.145-0.13-0.318-0.23-0.52-0.3c-0.202-0.069-0.422-0.104-0.66-0.104
		c-0.231,0-0.446,0.035-0.646,0.104c-0.2,0.07-0.372,0.17-0.517,0.3C3.98,6.384,3.866,6.541,3.784,6.724
		C3.701,6.907,3.66,7.114,3.66,7.346c0,0.227,0.041,0.434,0.124,0.619S3.98,8.306,4.124,8.435z M4.601,6.991
		c0.04-0.101,0.094-0.185,0.162-0.253S4.911,6.62,5.002,6.587c0.092-0.033,0.187-0.049,0.286-0.049c0.224,0,0.406,0.066,0.547,0.198
		c0.141,0.132,0.212,0.335,0.212,0.611c0,0.268-0.068,0.468-0.204,0.602S5.523,8.149,5.288,8.149c-0.22,0-0.4-0.072-0.539-0.217
		C4.61,7.787,4.54,7.592,4.54,7.346C4.54,7.21,4.56,7.092,4.601,6.991z M6.647,1.975c0-0.074-0.003-0.157-0.008-0.25
		c-0.005-0.094-0.012-0.179-0.02-0.256l0.028,0.005c0.018,0.033,0.044,0.074,0.077,0.121C6.757,1.643,6.79,1.691,6.826,1.738
		C6.86,1.786,6.895,1.832,6.93,1.876s0.063,0.081,0.085,0.11l1.623,1.986h0.753V0.121H8.567V2.14c0,0.069,0.002,0.15,0.008,0.242
		c0.006,0.092,0.012,0.172,0.02,0.242H8.567C8.548,2.588,8.524,2.548,8.495,2.506C8.466,2.464,8.436,2.421,8.407,2.377
		S8.349,2.291,8.319,2.253c-0.03-0.038-0.055-0.07-0.077-0.096L6.57,0.121H5.822v3.851h0.825V1.975z M8.586,5.973
		C8.441,6.049,8.332,6.143,8.259,6.257H8.237c0.007-0.033,0.013-0.068,0.017-0.104c0.003-0.037,0.005-0.075,0.005-0.116V5.921H7.434
		v3.972h0.825V8.644C8.325,8.703,8.422,8.748,8.55,8.779C8.679,8.81,8.82,8.825,8.974,8.825c0.235,0,0.444-0.039,0.627-0.115
		c0.183-0.077,0.337-0.184,0.462-0.319s0.219-0.296,0.283-0.481c0.064-0.185,0.096-0.386,0.096-0.602
		c0-0.213-0.028-0.407-0.085-0.583c-0.057-0.176-0.142-0.328-0.253-0.457s-0.252-0.229-0.42-0.3C9.515,5.896,9.32,5.861,9.1,5.861
		C8.902,5.861,8.731,5.898,8.586,5.973z M9.562,7.318c0,0.293-0.066,0.503-0.198,0.63c-0.132,0.126-0.31,0.19-0.534,0.19
		c-0.125,0-0.238-0.02-0.341-0.061S8.31,7.989,8.259,7.934V6.862C8.343,6.762,8.428,6.69,8.515,6.644
		c0.086-0.046,0.211-0.069,0.376-0.069c0.202,0,0.364,0.061,0.487,0.182C9.501,6.878,9.562,7.065,9.562,7.318z M9.862,11.724H5.313
		c-1.885,0-3.414,1.528-3.414,3.414v0.036c0,1.885,1.528,3.414,3.414,3.414h4.549c1.885,0,3.414-1.528,3.414-3.414v-0.036
		C13.276,13.253,11.748,11.724,9.862,11.724z M9.956,16.463c-0.732,0-1.325-0.593-1.325-1.324c0-0.732,0.593-1.325,1.325-1.325
		c0.732,0,1.325,0.593,1.325,1.325C11.28,15.87,10.687,16.463,9.956,16.463z"/>
</g>
</svg>
