<?xml version="1.0" encoding="utf-8"?>
<!-- Generator: Adobe Illustrator 21.0.2, SVG Export Plug-In . SVG Version: 6.00 Build 0)  -->
<svg version="1.1" xmlns="http://www.w3.org/2000/svg" xmlns:xlink="http://www.w3.org/1999/xlink" x="0px" y="0px"
	 viewBox="0 0 20 20" style="enable-background:new 0 0 20 20;" xml:space="preserve">
<style type="text/css">
	.st0{fill:none;}
</style>
<g id="серый">
	<rect class="st0" width="20" height="20"/>
</g>
<g id="Layer_9">
	<path d="M10.432,6.08c-2.416,0-4.375,1.959-4.375,4.375v4.921c0,2.416,1.959,4.375,4.375,4.375s4.375-1.959,4.375-4.375v-4.921
		C14.806,8.039,12.848,6.08,10.432,6.08z M10.482,11.855c-0.879,0-1.592-0.713-1.592-1.592c0-0.879,0.713-1.592,1.592-1.592
		s1.592,0.713,1.592,1.592C12.073,11.143,11.361,11.855,10.482,11.855z M13.685,5.412l0.848-0.849
		c-1.095-1.095-2.547-1.699-4.09-1.699c-1.542,0-2.994,0.604-4.09,1.699L7.2,5.412c0.869-0.869,2.021-1.347,3.242-1.347
		S12.815,4.542,13.685,5.412z M4.798,2.587l0.848,0.849c2.647-2.646,6.949-2.645,9.595,0l0.848-0.849
		C12.978-0.525,7.91-0.526,4.798,2.587z"/>
</g>
</svg>
